<svg xmlns="http://www.w3.org/2000/svg" xmlns:xlink="http://www.w3.org/1999/xlink" version="1.1" x="0px" y="0px" viewBox="0 0 100 125" style="enable-background:new 0 0 100 100;" xml:space="preserve"><path d="M58.128,61.225h-4.037v-4.037c0-0.553-0.447-1-1-1h-6.577c-0.553,0-1,0.447-1,1v4.037h-4.037c-0.553,0-1,0.447-1,1v6.577  c0,0.553,0.447,1,1,1h4.037v4.038c0,0.553,0.447,1,1,1h6.577c0.553,0,1-0.447,1-1v-4.038h4.037c0.553,0,1-0.447,1-1v-6.577  C59.128,61.672,58.681,61.225,58.128,61.225z M57.128,67.802h-4.037c-0.553,0-1,0.447-1,1v4.038h-4.577v-4.038c0-0.553-0.447-1-1-1  h-4.037v-4.577h4.037c0.553,0,1-0.447,1-1v-4.037h4.577v4.037c0,0.553,0.447,1,1,1h4.037V67.802z"/><path d="M30.826,60.646c-2.684,0-4.867,2.184-4.867,4.867s2.184,4.867,4.867,4.867s4.867-2.184,4.867-4.867  S33.51,60.646,30.826,60.646z M30.826,68.381c-1.581,0-2.867-1.286-2.867-2.867s1.286-2.867,2.867-2.867s2.867,1.286,2.867,2.867  S32.407,68.381,30.826,68.381z"/><path d="M68.778,60.646c-2.684,0-4.867,2.184-4.867,4.867s2.184,4.867,4.867,4.867s4.867-2.184,4.867-4.867  S71.462,60.646,68.778,60.646z M68.778,68.381c-1.581,0-2.867-1.286-2.867-2.867s1.286-2.867,2.867-2.867s2.867,1.286,2.867,2.867  S70.359,68.381,68.778,68.381z"/><path d="M35.115,15.891c-3.141,0-5.734,2.371-6.095,5.416h-1.016c-4.284,0-7.77,3.485-7.77,7.77v49.819c0,0.553,0.447,1,1,1h3.041  v5.283c0,2.695,2.193,4.889,4.889,4.889s4.889-2.193,4.889-4.889v-5.283h31.497v5.283c0,2.695,2.193,4.889,4.889,4.889  s4.889-2.193,4.889-4.889v-5.283h3.041c0.553,0,1-0.447,1-1V29.076c0-4.284-3.485-7.77-7.771-7.77h-1.11  c-0.361-3.045-2.954-5.416-6.095-5.416s-5.734,2.371-6.095,5.416H41.21C40.849,18.261,38.256,15.891,35.115,15.891z M35.115,17.891  c2.035,0,3.723,1.479,4.068,3.416h-8.136C31.392,19.369,33.081,17.891,35.115,17.891z M77.369,50.75H50.802V31.917h26.567V50.75z   M48.802,50.75H22.235V31.917h26.566V50.75z M32.054,85.179c0,1.593-1.296,2.889-2.889,2.889s-2.889-1.296-2.889-2.889v-5.283h5.777  V85.179z M73.328,85.179c0,1.593-1.296,2.889-2.889,2.889s-2.889-1.296-2.889-2.889v-5.283h5.777V85.179z M22.235,77.896V52.75  h55.134v25.146H22.235z M77.369,29.076v0.841H22.235v-0.841c0-3.182,2.588-5.77,5.77-5.77h43.594  C74.78,23.307,77.369,25.895,77.369,29.076z M64.394,17.891c2.035,0,3.723,1.479,4.068,3.416h-8.136  C60.671,19.369,62.359,17.891,64.394,17.891z"/><path d="M36.102,13.041V11c0-0.553-0.447-1-1-1s-1,0.447-1,1v2.041c0,0.553,0.447,1,1,1S36.102,13.594,36.102,13.041z"/><path d="M40.403,15.42l1.395-1.395c0.391-0.391,0.391-1.023,0-1.414s-1.023-0.391-1.414,0l-1.395,1.395  c-0.391,0.391-0.391,1.023,0,1.414c0.195,0.195,0.451,0.293,0.707,0.293S40.208,15.615,40.403,15.42z"/><path d="M30.419,15.502c0.256,0,0.512-0.098,0.707-0.293c0.391-0.391,0.391-1.023,0-1.414l-1.184-1.184  c-0.391-0.391-1.023-0.391-1.414,0s-0.391,1.023,0,1.414l1.184,1.184C29.907,15.404,30.163,15.502,30.419,15.502z"/><path d="M63.38,11v2.041c0,0.553,0.447,1,1,1s1-0.447,1-1V11c0-0.553-0.447-1-1-1S63.38,10.447,63.38,11z"/><path d="M69.661,12.611l-1.394,1.395c-0.391,0.391-0.391,1.024,0,1.414c0.195,0.195,0.451,0.293,0.707,0.293  s0.512-0.098,0.707-0.293l1.394-1.395c0.391-0.391,0.391-1.024,0-1.414C70.685,12.221,70.052,12.221,69.661,12.611z"/><path d="M57.807,12.611c-0.391,0.391-0.391,1.023,0,1.414l1.184,1.184c0.195,0.195,0.451,0.293,0.707,0.293s0.512-0.098,0.707-0.293  c0.391-0.391,0.391-1.023,0-1.414l-1.184-1.184C58.83,12.221,58.197,12.221,57.807,12.611z"/><text x="0" y="115" fill="#000000" font-size="5px" font-weight="bold" font-family="'Helvetica Neue', Helvetica, Arial-Unicode, Arial, Sans-serif">Created by Made</text><text x="0" y="120" fill="#000000" font-size="5px" font-weight="bold" font-family="'Helvetica Neue', Helvetica, Arial-Unicode, Arial, Sans-serif">from the Noun Project</text></svg>