<svg xmlns="http://www.w3.org/2000/svg" xmlns:xlink="http://www.w3.org/1999/xlink" version="1.1" x="0px" y="0px" viewBox="0 0 100 125" style="enable-background:new 0 0 100 100;" xml:space="preserve"><path d="M80.0859375,54.8808594c-7.9174805-6.2490234-21.199707-18.2548828-21.199707-28.4384766v-9.3154297  c0.796875-0.1572266,1.5229492-0.5810547,2.0561523-1.2148438c0.6850586-0.8134766,0.9726562-1.8896484,0.7890625-2.9501953  C61.4379883,11.2734375,59.8515625,10,58.0415039,10H41.9169922c-1.8105469,0-3.3969727,1.2734375-3.6904297,2.9619141  c-0.1835938,1.0605469,0.1040039,2.1367188,0.7890625,2.9501953c0.5332031,0.6337891,1.2592773,1.0576172,2.0561523,1.2148438  v9.3154297c0,10.1835938-13.2822266,22.1894531-21.199707,28.4384766  C13.5849609,59.84375,9.9790039,67.2666016,9.9790039,75.2470703v7.9580078C9.9790039,86.9521484,13.0268555,90,16.7734375,90  h66.4111328c3.746582,0,6.7944336-3.0478516,6.7944336-6.7949219v-7.9580078  C89.9790039,67.2666016,86.3730469,59.84375,80.0859375,54.8808594z M87.9790039,83.2050781  C87.9790039,85.8486328,85.828125,88,83.1845703,88H16.7734375c-2.6435547,0-4.7944336-2.1513672-4.7944336-4.7949219v-7.9580078  c0-7.3642578,3.3286133-14.2148438,9.1323242-18.7958984c10.0180664-7.9082031,21.9604492-19.5341797,21.9604492-30.0087891  V16.1953125c0-0.5527344-0.4477539-1-1-1h-0.300293c-0.4736328,0-0.9204102-0.2080078-1.2255859-0.5703125  c-0.309082-0.3671875-0.4326172-0.8369141-0.3486328-1.3212891C40.3261719,12.5605469,41.065918,12,41.9169922,12h16.1245117  c0.8510742,0,1.590332,0.5605469,1.7192383,1.3037109c0.0839844,0.484375-0.0395508,0.9541016-0.3486328,1.3212891  c-0.3051758,0.3623047-0.7519531,0.5703125-1.2255859,0.5703125h-0.300293c-0.5522461,0-1,0.4472656-1,1v10.2470703  c0,10.4746094,11.9423828,22.1005859,21.9604492,30.0087891c5.8037109,4.5810547,9.1323242,11.4316406,9.1323242,18.7958984  V83.2050781z"/><path d="M67.0654297,56.2597656h-9.3251953v-9.3251953c0-0.5527344-0.4477539-1-1-1H43.2597656c-0.5522461,0-1,0.4472656-1,1  v9.3251953h-9.3251953c-0.5522461,0-1,0.4472656-1,1v13.4804688c0,0.5527344,0.4477539,1,1,1h9.3251953v9.3251953  c0,0.5527344,0.4477539,1,1,1h13.4804688c0.5522461,0,1-0.4472656,1-1v-9.3251953h9.3251953c0.5522461,0,1-0.4472656,1-1V57.2597656  C68.0654297,56.7070312,67.6176758,56.2597656,67.0654297,56.2597656z M66.0654297,69.7402344h-9.3251953  c-0.5522461,0-1,0.4472656-1,1v9.3251953H44.2597656v-9.3251953c0-0.5527344-0.4477539-1-1-1h-9.3251953V58.2597656h9.3251953  c0.5522461,0,1-0.4472656,1-1v-9.3251953h11.4804688v9.3251953c0,0.5527344,0.4477539,1,1,1h9.3251953V69.7402344z"/><text x="0" y="115" fill="#000000" font-size="5px" font-weight="bold" font-family="'Helvetica Neue', Helvetica, Arial-Unicode, Arial, Sans-serif">Created by Made</text><text x="0" y="120" fill="#000000" font-size="5px" font-weight="bold" font-family="'Helvetica Neue', Helvetica, Arial-Unicode, Arial, Sans-serif">from the Noun Project</text></svg>