<svg xmlns="http://www.w3.org/2000/svg" xmlns:xlink="http://www.w3.org/1999/xlink" version="1.1" x="0px" y="0px" viewBox="0 0 100 125" style="enable-background:new 0 0 100 100;" xml:space="preserve"><path d="M39.4453125,20.1347656c0.5522461,0,1-0.4472656,1-1v-3.1953125c0-0.5527344-0.4477539-1-1-1s-1,0.4472656-1,1v3.1953125  C38.4453125,19.6875,38.8930664,20.1347656,39.4453125,20.1347656z"/><path d="M34.1000977,20.1347656c0.5522461,0,1-0.4472656,1-1v-3.1953125c0-0.5527344-0.4477539-1-1-1s-1,0.4472656-1,1v3.1953125  C33.1000977,19.6875,33.5478516,20.1347656,34.1000977,20.1347656z"/><path d="M28.7548828,20.1347656c0.5522461,0,1-0.4472656,1-1v-3.1953125c0-0.5527344-0.4477539-1-1-1s-1,0.4472656-1,1v3.1953125  C27.7548828,19.6875,28.2026367,20.1347656,28.7548828,20.1347656z"/><path d="M23.4091797,20.1347656c0.5522461,0,1-0.4472656,1-1v-3.1953125c0-0.5527344-0.4477539-1-1-1s-1,0.4472656-1,1v3.1953125  C22.4091797,19.6875,22.8569336,20.1347656,23.4091797,20.1347656z"/><path d="M19.0639648,19.1347656v-3.1953125c0-0.5527344-0.4477539-1-1-1s-1,0.4472656-1,1v3.1953125c0,0.5527344,0.4477539,1,1,1  S19.0639648,19.6875,19.0639648,19.1347656z"/><path d="M41.1132812,27.8544922v-2.7333984h0.7011719c2.609375,0,4.7324219-2.1230469,4.7324219-4.7324219v-5.65625  C46.546875,12.1230469,44.4238281,10,41.8144531,10H15.6948242c-2.609375,0-4.7324219,2.1230469-4.7324219,4.7324219v5.65625  c0,2.609375,2.1230469,4.7324219,4.7324219,4.7324219h0.7016602v2.7333984C12.7890625,28.34375,10,31.4443359,10,35.1835938  v49.2451172C10,87.5009766,12.4990234,90,15.5708008,90h26.3676758c3.0717773,0,5.5708008-2.4990234,5.5708008-5.5712891V35.1835938  C47.5092773,31.4443359,44.7202148,28.34375,41.1132812,27.8544922z M12.9624023,20.3886719v-5.65625  C12.9624023,13.2255859,14.1879883,12,15.6948242,12h26.1196289c1.5068359,0,2.7324219,1.2255859,2.7324219,2.7324219v5.65625  c0,1.5068359-1.2255859,2.7324219-2.7324219,2.7324219H15.6948242  C14.1879883,23.1210938,12.9624023,21.8955078,12.9624023,20.3886719z M45.5092773,76.9912109H12V41.1298828h33.5092773V76.9912109z   M41.9384766,88H15.5708008C13.6020508,88,12,86.3974609,12,84.4287109v-5.4375h33.5092773v5.4375  C45.5092773,86.3974609,43.9072266,88,41.9384766,88z M45.5092773,39.1298828H12v-3.9462891  c0-2.9755859,2.4208984-5.3964844,5.3964844-5.3964844c0.5522461,0,1-0.4472656,1-1v-3.6660156h20.7167969v3.6660156  c0,0.5527344,0.4477539,1,1,1c2.9755859,0,5.3959961,2.4208984,5.3959961,5.3964844V39.1298828z"/><path d="M81.9360352,20.1347656c0.5522461,0,1-0.4472656,1-1v-3.1953125c0-0.5527344-0.4477539-1-1-1s-1,0.4472656-1,1v3.1953125  C80.9360352,19.6875,81.3837891,20.1347656,81.9360352,20.1347656z"/><path d="M76.5908203,20.1347656c0.5522461,0,1-0.4472656,1-1v-3.1953125c0-0.5527344-0.4477539-1-1-1s-1,0.4472656-1,1v3.1953125  C75.5908203,19.6875,76.0385742,20.1347656,76.5908203,20.1347656z"/><path d="M71.2451172,20.1347656c0.5522461,0,1-0.4472656,1-1v-3.1953125c0-0.5527344-0.4477539-1-1-1s-1,0.4472656-1,1v3.1953125  C70.2451172,19.6875,70.6928711,20.1347656,71.2451172,20.1347656z"/><path d="M65.8999023,20.1347656c0.5522461,0,1-0.4472656,1-1v-3.1953125c0-0.5527344-0.4477539-1-1-1s-1,0.4472656-1,1v3.1953125  C64.8999023,19.6875,65.3476562,20.1347656,65.8999023,20.1347656z"/><path d="M61.5546875,19.1347656v-3.1953125c0-0.5527344-0.4477539-1-1-1s-1,0.4472656-1,1v3.1953125c0,0.5527344,0.4477539,1,1,1  S61.5546875,19.6875,61.5546875,19.1347656z"/><path d="M83.6035156,27.8544922v-2.7333984h0.7016602c2.609375,0,4.7324219-2.1230469,4.7324219-4.7324219v-5.65625  C89.0375977,12.1230469,86.9145508,10,84.3051758,10H58.1855469c-2.609375,0-4.7324219,2.1230469-4.7324219,4.7324219v5.65625  c0,2.609375,2.1230469,4.7324219,4.7324219,4.7324219h0.7011719v2.7333984  c-3.6069336,0.4892578-6.3959961,3.5898438-6.3959961,7.3291016v49.2451172C52.4907227,87.5009766,54.9897461,90,58.0615234,90  h26.3676758C87.5009766,90,90,87.5009766,90,84.4287109V35.1835938C90,31.4443359,87.2109375,28.34375,83.6035156,27.8544922z   M55.453125,20.3886719v-5.65625C55.453125,13.2255859,56.6787109,12,58.1855469,12h26.1196289  c1.5068359,0,2.7324219,1.2255859,2.7324219,2.7324219v5.65625c0,1.5068359-1.2255859,2.7324219-2.7324219,2.7324219H58.1855469  C56.6787109,23.1210938,55.453125,21.8955078,55.453125,20.3886719z M88,76.9912109H54.4907227V41.1298828H88V76.9912109z   M84.4291992,88H58.0615234c-1.96875,0-3.5708008-1.6025391-3.5708008-3.5712891v-5.4375H88v5.4375  C88,86.3974609,86.3979492,88,84.4291992,88z M88,39.1298828H54.4907227v-3.9462891  c0-2.9755859,2.4204102-5.3964844,5.3959961-5.3964844c0.5522461,0,1-0.4472656,1-1v-3.6660156h20.7167969v3.6660156  c0,0.5527344,0.4477539,1,1,1C85.5791016,29.7871094,88,32.2080078,88,35.1835938V39.1298828z"/><path d="M16.6142578,58.7607422c1.7670898,7.7451172,11.3554688,11.7382812,11.7626953,11.9042969  c0.1210938,0.0498047,0.2495117,0.0742188,0.3779297,0.0742188s0.2568359-0.0244141,0.3779297-0.0742188  c0.4072266-0.1660156,9.996582-4.1591797,11.7626953-11.9042969c1.0708008-4.6953125-1.5302734-8.0908203-4.4003906-9.2578125  c-2.8041992-1.140625-5.7192383-0.3427734-7.7402344,2.0195312c-2.019043-2.3613281-4.9306641-3.1591797-7.7402344-2.0195312  C18.1445312,50.6699219,15.543457,54.0644531,16.6142578,58.7607422z M21.7680664,51.3564453  c0.5429688-0.2216797,1.1538086-0.3544922,1.7900391-0.3544922c1.4853516,0,3.1103516,0.7246094,4.3432617,2.7441406  c0.1816406,0.296875,0.5048828,0.4785156,0.8535156,0.4785156s0.671875-0.1816406,0.8535156-0.4785156  c1.7612305-2.8847656,4.3222656-3.1289062,6.1333008-2.3896484c2.1118164,0.8583984,4.0151367,3.4023438,3.2036133,6.9589844  c-1.3515625,5.9287109-8.4633789,9.5341797-10.190918,10.3300781c-1.7285156-0.7939453-8.8344727-4.3876953-10.1899414-10.3300781  C17.7529297,54.7587891,19.65625,52.2148438,21.7680664,51.3564453z"/><path d="M59.1044922,58.7607422c1.7675781,7.7451172,11.3554688,11.7382812,11.7626953,11.9042969  c0.1210938,0.0498047,0.2495117,0.0742188,0.3779297,0.0742188s0.2568359-0.0244141,0.3779297-0.0742188  c0.4072266-0.1660156,9.9970703-4.1591797,11.7626953-11.9042969c1.0708008-4.6953125-1.5297852-8.0908203-4.3999023-9.2578125  c-2.8071289-1.140625-5.7197266-0.3427734-7.7407227,2.0195312c-2.0200195-2.3623047-4.9331055-3.1601562-7.7392578-2.0195312  C60.6352539,50.6699219,58.0336914,54.0644531,59.1044922,58.7607422z M64.2587891,51.3554688  c0.5429688-0.2207031,1.1533203-0.3535156,1.7900391-0.3535156c1.4848633,0,3.1103516,0.7246094,4.3427734,2.7431641  c0.1816406,0.2978516,0.5048828,0.4794922,0.8535156,0.4794922s0.671875-0.1816406,0.8535156-0.4785156  c1.7612305-2.8847656,4.3222656-3.1289062,6.1337891-2.3896484c2.1118164,0.8583984,4.0146484,3.4023438,3.203125,6.9589844  c-1.3515625,5.9287109-8.4633789,9.5341797-10.190918,10.3300781c-1.7280273-0.7939453-8.8339844-4.3876953-10.1899414-10.3300781  C60.2431641,54.7587891,62.1469727,52.2148438,64.2587891,51.3554688z"/><text x="0" y="115" fill="#000000" font-size="5px" font-weight="bold" font-family="'Helvetica Neue', Helvetica, Arial-Unicode, Arial, Sans-serif">Created by Made</text><text x="0" y="120" fill="#000000" font-size="5px" font-weight="bold" font-family="'Helvetica Neue', Helvetica, Arial-Unicode, Arial, Sans-serif">from the Noun Project</text></svg>